<svg width="40" height="40" viewBox="0 0 40 40" fill="none"
    xmlns="http://www.w3.org/2000/svg">
    <rect width="40" height="40" rx="10" fill="#CCFF00"/>
    <path d="M13 11C13 10.2044 13.3161 9.44129 13.8787 8.87868C14.4413 8.31607 15.2044 8 16 8H25C25.7956 8 26.5587 8.31607 27.1213 8.87868C27.6839 9.44129 28 10.2044 28 11V29C28 29.7956 27.6839 30.5587 27.1213 31.1213C26.5587 31.6839 25.7956 32 25 32H16C15.2044 32 14.4413 31.6839 13.8787 31.1213C13.3161 30.5587 13 29.7956 13 29V11ZM22 27.5C22 27.1022 21.842 26.7206 21.5607 26.4393C21.2794 26.158 20.8978 26 20.5 26C20.1022 26 19.7206 26.158 19.4393 26.4393C19.158 26.7206 19 27.1022 19 27.5C19 27.8978 19.158 28.2794 19.4393 28.5607C19.7206 28.842 20.1022 29 20.5 29C20.8978 29 21.2794 28.842 21.5607 28.5607C21.842 28.2794 22 27.8978 22 27.5Z" fill="black"/>
</svg>
