<svg width="200" height="200" viewBox="0 0 200 200" fill="none" xmlns="http://www.w3.org/2000/svg">
<rect width="200" height="200" rx="5" fill="#CCFF00"/>
<path d="M71.0926 164.384C69.7806 164.384 68.5886 164.176 67.5166 163.76C66.4606 163.328 65.5886 162.704 64.9006 161.888L67.9486 158.288C68.3966 158.848 68.8366 159.264 69.2686 159.536C69.7006 159.808 70.1486 159.944 70.6126 159.944C71.2046 159.944 71.6526 159.768 71.9566 159.416C72.2766 159.064 72.4366 158.544 72.4366 157.856V151.472H66.7246V147.2H78.0286V157.52C78.0286 159.808 77.4366 161.528 76.2526 162.68C75.0846 163.816 73.3646 164.384 71.0926 164.384ZM91.7223 161.072H85.3383L84.2103 164H78.4502L85.7943 147.2H91.3623L98.7063 164H92.8503L91.7223 161.072ZM90.1623 156.992L88.5303 152.768L86.8983 156.992H90.1623ZM116.601 147.2L109.497 164H103.929L96.8252 147.2H102.921L106.929 157.016L111.033 147.2H116.601ZM128.004 161.072H121.62L120.492 164H114.731L122.076 147.2H127.644L134.988 164H129.132L128.004 161.072ZM126.444 156.992L124.812 152.768L123.18 156.992H126.444Z" fill="black"/>
<path d="M106.717 25C112.11 37.7284 87.38 45.5255 85.0797 56.1345C82.9756 65.8703 99.7314 77.2909 99.7468 77.2909C97.1888 73.2635 95.3271 69.8669 92.7729 63.5854C88.4455 52.9764 119.141 43.406 106.717 25ZM123.065 42.6713C123.065 42.6713 101.443 44.0369 100.347 58.177C99.8468 64.474 106.055 67.7782 106.236 72.3634C106.39 76.1023 102.509 79.2103 102.509 79.2103C102.509 79.2103 109.467 77.9525 111.644 72.2403C114.049 65.901 106.959 61.5736 107.679 56.4922C108.371 51.6416 123.065 42.6713 123.065 42.6713ZM128.354 75.2445C126.085 75.1406 123.53 75.983 121.261 77.6486C125.738 76.66 129.558 79.4681 129.558 82.6992C129.558 89.9424 119.218 96.7624 119.218 96.7624C119.218 96.7624 135.205 94.9738 135.205 83.0608C135.205 78.1448 132.128 75.4253 128.354 75.2445ZM85.9221 75.3676C80.3445 75.5599 69.2124 76.4792 69.2124 80.7759C69.2124 86.7574 95.1463 87.2228 113.691 83.5416C113.691 83.5416 118.738 80.0258 120.061 78.7333C107.905 81.2567 80.1522 81.6491 80.1522 79.4527C80.1522 77.4409 89.0455 75.3676 89.0455 75.3676C89.0455 75.3676 87.7839 75.306 85.9221 75.3676ZM84.2373 86.4266C81.1869 86.4266 76.6633 88.7999 76.6633 91.1118C76.6633 95.77 99.6276 99.3474 116.576 92.5542L110.683 88.95C99.1891 92.7081 77.9558 91.4579 84.2373 86.4266ZM87.1222 96.8817C82.9602 96.8817 80.2714 99.5128 80.2714 101.451C80.2714 107.414 105.14 108.002 115.01 101.932L108.759 97.8433C101.397 101.017 82.8717 101.482 87.1222 96.8817ZM73.1783 102.294C66.389 102.159 62 105.237 62 107.818C62 121.565 131.601 120.908 131.601 106.856C131.601 104.529 128.85 103.417 127.873 102.89C133.555 116.322 71.0165 115.272 71.0165 107.337C71.0165 105.537 75.6439 103.732 79.9098 104.575L76.3056 102.529C75.2698 102.378 74.2249 102.298 73.1783 102.29V102.294ZM138.932 111.549C128.354 121.781 101.582 125.447 74.6207 119.123C101.578 130.393 138.798 124.123 138.932 111.549Z" fill="black"/>
</svg>
