<svg width="200" height="200" viewBox="0 0 200 200" fill="none" xmlns="http://www.w3.org/2000/svg">
<rect width="200" height="200" rx="5" fill="#CCFF00"/>
<path d="M150 74.5375C150 67.9125 141.704 61.6333 128.983 57.7417C131.921 44.7792 130.617 34.4625 124.867 31.1583C123.473 30.378 121.897 29.9852 120.3 30.0208V34.5625C121.237 34.5625 121.992 34.75 122.625 35.0958C125.396 36.6875 126.6 42.7375 125.662 50.525C125.438 52.4417 125.071 54.4583 124.621 56.5167C120.361 55.4902 116.038 54.7482 111.679 54.2958C109.083 50.7137 106.25 47.3089 103.2 44.1042C109.846 37.9292 116.083 34.5458 120.325 34.5458V30C114.717 30 107.379 33.9958 99.9583 40.925C92.5417 34.0417 85.2 30.0833 79.5958 30.0833V34.625C83.8167 34.625 90.075 37.9917 96.7208 44.125C93.8667 47.125 91.0125 50.525 88.3 54.2958C83.9326 54.7432 79.6015 55.4922 75.3375 56.5375C74.8667 54.5 74.5208 52.525 74.275 50.6292C73.3167 42.8375 74.5 36.7875 77.2542 35.1792C77.8625 34.8125 78.6583 34.6458 79.5958 34.6458V30.1042C77.8875 30.1042 76.3333 30.4708 74.9917 31.2417C69.2625 34.5458 67.9792 44.8375 70.9333 57.7625C58.2542 61.6792 50 67.9333 50 74.5375C50 81.1625 58.2958 87.4417 71.0167 91.3292C68.0792 104.296 69.3833 114.613 75.1333 117.912C76.4583 118.688 78.0083 119.054 79.7167 119.054C85.325 119.054 92.6625 115.058 100.083 108.129C107.5 115.017 114.837 118.971 120.446 118.971C122.055 119.005 123.643 118.611 125.05 117.829C130.779 114.529 132.062 104.237 129.108 91.3125C141.746 87.4208 150 81.1417 150 74.5375ZM123.458 60.9417C122.667 63.6661 121.749 66.3523 120.708 68.9917C119.005 65.6782 117.134 62.4532 115.104 59.3292C118 59.7583 120.792 60.2875 123.463 60.9417H123.458ZM114.125 82.65C112.537 85.4 110.904 88.0125 109.212 90.4375C103.097 90.9765 96.946 90.9835 90.8292 90.4583C87.3206 85.4466 84.2522 80.1407 81.6583 74.6C84.2483 69.0463 87.3036 63.7217 90.7917 58.6833C96.9058 58.1432 103.055 58.1348 109.171 58.6583C110.862 61.0833 112.517 63.675 114.104 66.4083C115.654 69.075 117.062 71.7833 118.346 74.5167C117.048 77.2831 115.64 79.9964 114.125 82.65ZM120.708 80C121.808 82.7292 122.75 85.4625 123.521 88.1125C120.854 88.7667 118.037 89.3167 115.125 89.7417C117.147 86.5892 119.01 83.338 120.708 80ZM100.042 101.75C98.1458 99.7917 96.25 97.6125 94.375 95.225C96.2083 95.3083 98.0833 95.3708 99.9792 95.3708C101.896 95.3708 103.792 95.3292 105.646 95.225C103.812 97.6125 101.917 99.7917 100.042 101.75ZM84.875 89.7417C82.0656 89.3346 79.2765 88.7979 76.5167 88.1333C77.2708 85.5042 78.2083 82.7917 79.2667 80.0833C80.1042 81.7083 80.9833 83.3417 81.9417 84.975C82.9 86.6042 83.875 88.1958 84.875 89.7417ZM99.9375 47.325C101.833 49.2833 103.729 51.4625 105.604 53.85C103.771 53.7667 101.896 53.7042 100 53.7042C98.0833 53.7042 96.1875 53.7458 94.3333 53.85C96.1667 51.4625 98.0625 49.2833 99.9375 47.325ZM84.8542 59.3333C82.8328 62.4789 80.9694 65.7232 79.2708 69.0542C78.2009 66.3977 77.2623 63.6903 76.4583 60.9417C79.125 60.3083 81.9417 59.7583 84.8542 59.3333ZM66.4083 84.85C59.1917 81.775 54.525 77.7375 54.525 74.5375C54.525 71.3375 59.1917 67.2792 66.4083 64.225C68.1583 63.4708 70.075 62.7958 72.0542 62.1667C73.2167 66.1583 74.7458 70.3167 76.6375 74.5792C74.8515 78.5883 73.3411 82.7145 72.1167 86.9292C70.181 86.3298 68.276 85.6359 66.4083 84.85ZM77.375 113.975C74.6042 112.392 73.4 106.333 74.3375 98.55C74.5625 96.6333 74.9292 94.6125 75.3792 92.5542C79.3708 93.5333 83.7333 94.2875 88.3208 94.7792C90.9174 98.3612 93.7501 101.766 96.8 104.971C90.1542 111.146 83.9167 114.529 79.675 114.529C78.8748 114.538 78.0847 114.349 77.375 113.979V113.975ZM125.725 98.4458C126.683 106.233 125.5 112.287 122.746 113.896C122.137 114.262 121.342 114.425 120.404 114.425C116.183 114.425 109.925 111.062 103.279 104.925C106.133 101.933 108.987 98.5292 111.7 94.7583C116.067 94.311 120.399 93.5619 124.662 92.5167C125.133 94.575 125.496 96.55 125.725 98.4458ZM133.571 84.85C131.821 85.6042 129.904 86.2792 127.925 86.9083C126.679 82.6721 125.148 78.5252 123.342 74.4958C125.217 70.2583 126.721 66.1208 127.862 62.1458C129.883 62.775 131.796 63.4708 133.592 64.225C140.808 67.3 145.475 71.3375 145.475 74.5375C145.454 77.7375 140.787 81.7958 133.571 84.85Z" fill="black"/>
<path d="M99.9788 83.8542C102.45 83.8542 104.819 82.8726 106.567 81.1254C108.314 79.3782 109.295 77.0084 109.295 74.5375C109.295 72.0666 108.314 69.6968 106.567 67.9496C104.819 66.2024 102.45 65.2208 99.9788 65.2208C97.5078 65.2208 95.1381 66.2024 93.3909 67.9496C91.6437 69.6968 90.6621 72.0666 90.6621 74.5375C90.6621 77.0084 91.6437 79.3782 93.3909 81.1254C95.1381 82.8726 97.5078 83.8542 99.9788 83.8542Z" fill="black"/>
<path d="M65.7789 153.83H64.2429V158.054H58.5789V141.254H66.6669C68.2189 141.254 69.5709 141.51 70.7229 142.022C71.8749 142.534 72.7629 143.27 73.3869 144.23C74.0109 145.19 74.3229 146.31 74.3229 147.59C74.3229 148.79 74.0509 149.838 73.5069 150.734C72.9629 151.63 72.1789 152.342 71.1549 152.87L74.6829 158.054H68.6349L65.7789 153.83ZM68.6109 147.59C68.6109 146.966 68.4189 146.486 68.0349 146.15C67.6509 145.798 67.0749 145.622 66.3069 145.622H64.2429V149.558H66.3069C67.0749 149.558 67.6509 149.39 68.0349 149.054C68.4189 148.702 68.6109 148.214 68.6109 147.59ZM90.4298 153.782V158.054H76.4618V141.254H90.1178V145.526H82.0298V147.494H89.1338V151.574H82.0298V153.782H90.4298ZM104.058 155.126H97.6742L96.5462 158.054H90.7862L98.1302 141.254H103.698L111.042 158.054H105.186L104.058 155.126ZM102.498 151.046L100.866 146.822L99.2342 151.046H102.498ZM120.4 158.438C118.624 158.438 117.024 158.07 115.6 157.334C114.176 156.582 113.056 155.542 112.24 154.214C111.44 152.87 111.04 151.35 111.04 149.654C111.04 147.958 111.44 146.446 112.24 145.118C113.056 143.774 114.176 142.734 115.6 141.998C117.024 141.246 118.624 140.87 120.4 140.87C122.032 140.87 123.488 141.158 124.768 141.734C126.048 142.31 127.104 143.142 127.936 144.23L124.36 147.422C123.32 146.11 122.096 145.454 120.688 145.454C119.504 145.454 118.552 145.838 117.832 146.606C117.112 147.358 116.752 148.374 116.752 149.654C116.752 150.934 117.112 151.958 117.832 152.726C118.552 153.478 119.504 153.854 120.688 153.854C122.096 153.854 123.32 153.198 124.36 151.886L127.936 155.078C127.104 156.166 126.048 156.998 124.768 157.574C123.488 158.15 122.032 158.438 120.4 158.438ZM133.102 145.646H128.182V141.254H143.686V145.646H138.766V158.054H133.102V145.646Z" fill="black"/>
</svg>
