<svg width="200" height="200" viewBox="0 0 200 200" fill="none" xmlns="http://www.w3.org/2000/svg">
<rect width="200" height="200" rx="5" fill="#CCFF00"/>
<path d="M49.2379 161.006H42.8539L41.7259 163.934H35.9659L43.3099 147.134H48.8779L56.2219 163.934H50.3659L49.2379 161.006ZM47.6779 156.926L46.0459 152.702L44.4139 156.926H47.6779ZM73.6858 147.134V163.934H69.0298L62.6458 156.302V163.934H57.1258V147.134H61.7818L68.1658 154.766V147.134H73.6858ZM87.5269 155.078H92.4469V162.182C91.4549 162.87 90.3029 163.398 88.9909 163.766C87.6789 164.134 86.3909 164.318 85.1269 164.318C83.3349 164.318 81.7269 163.95 80.3029 163.214C78.8789 162.462 77.7589 161.422 76.9429 160.094C76.1429 158.75 75.7429 157.23 75.7429 155.534C75.7429 153.838 76.1429 152.326 76.9429 150.998C77.7589 149.654 78.8869 148.614 80.3269 147.878C81.7829 147.126 83.4229 146.75 85.2469 146.75C86.8949 146.75 88.3669 147.03 89.6629 147.59C90.9749 148.134 92.0629 148.934 92.9269 149.99L89.3029 153.182C88.2469 151.95 86.9909 151.334 85.5349 151.334C84.2869 151.334 83.2949 151.71 82.5589 152.462C81.8229 153.214 81.4549 154.238 81.4549 155.534C81.4549 156.798 81.8149 157.814 82.5349 158.582C83.2709 159.35 84.2469 159.734 85.4629 159.734C86.1829 159.734 86.8709 159.598 87.5269 159.326V155.078ZM102.9 164.318C100.324 164.318 98.3162 163.622 96.8762 162.23C95.4362 160.838 94.7162 158.886 94.7162 156.374V147.134H100.38V156.206C100.38 157.438 100.596 158.334 101.028 158.894C101.476 159.454 102.116 159.734 102.948 159.734C103.78 159.734 104.412 159.454 104.844 158.894C105.292 158.334 105.516 157.438 105.516 156.206V147.134H111.084V156.374C111.084 158.886 110.364 160.838 108.924 162.23C107.484 163.622 105.476 164.318 102.9 164.318ZM113.681 147.134H119.345V159.542H126.929V163.934H113.681V147.134ZM140.175 161.006H133.791L132.663 163.934H126.903L134.247 147.134H139.815L147.159 163.934H141.303L140.175 161.006ZM138.615 156.926L136.983 152.702L135.351 156.926H138.615ZM155.263 159.71H153.727V163.934H148.063V147.134H156.151C157.703 147.134 159.055 147.39 160.207 147.902C161.359 148.414 162.247 149.15 162.871 150.11C163.495 151.07 163.807 152.19 163.807 153.47C163.807 154.67 163.535 155.718 162.991 156.614C162.447 157.51 161.663 158.222 160.639 158.75L164.167 163.934H158.119L155.263 159.71ZM158.095 153.47C158.095 152.846 157.903 152.366 157.519 152.03C157.135 151.678 156.559 151.502 155.791 151.502H153.727V155.438H155.791C156.559 155.438 157.135 155.27 157.519 154.934C157.903 154.582 158.095 154.094 158.095 153.47Z" fill="black"/>
<path d="M91.5094 77.6531H108.728L100.119 57.2094L91.5094 77.6531ZM100.119 25L53 41.5844L60.1781 103.075L100.119 124.934L140.075 103.109L147.253 41.5844L100.119 25.0156V25ZM129.528 101.238H118.541L112.616 86.6531H87.6156L81.6906 101.238H70.7031L100.112 36.0344L129.528 101.238Z" fill="black"/>
</svg>
