<svg width="200" height="200" viewBox="0 0 200 200" fill="none" xmlns="http://www.w3.org/2000/svg">
<rect width="200" height="200" rx="5" fill="#CCFF00"/>
<path d="M41.8094 147.198H47.4734V159.606H55.0574V163.998H41.8094V147.198ZM68.3043 161.07H61.9203L60.7923 163.998H55.0323L62.3763 147.198H67.9443L75.2883 163.998H69.4323L68.3043 161.07ZM66.7443 156.99L65.1123 152.766L63.4803 156.99H66.7443ZM83.3922 159.774H81.8562V163.998H76.1922V147.198H84.2802C85.8322 147.198 87.1842 147.454 88.3362 147.966C89.4882 148.478 90.3762 149.214 91.0002 150.174C91.6242 151.134 91.9362 152.254 91.9362 153.534C91.9362 154.734 91.6642 155.782 91.1202 156.678C90.5762 157.574 89.7922 158.286 88.7682 158.814L92.2962 163.998H86.2482L83.3922 159.774ZM86.2242 153.534C86.2242 152.91 86.0322 152.43 85.6482 152.094C85.2642 151.742 84.6882 151.566 83.9202 151.566H81.8562V155.502H83.9202C84.6882 155.502 85.2642 155.334 85.6482 154.998C86.0322 154.646 86.2242 154.158 86.2242 153.534ZM105.523 161.07H99.139L98.011 163.998H92.251L99.595 147.198H105.163L112.507 163.998H106.651L105.523 161.07ZM103.963 156.99L102.331 152.766L100.699 156.99H103.963ZM130.402 147.198L123.298 163.998H117.73L110.626 147.198H116.722L120.73 157.014L124.834 147.198H130.402ZM144.934 159.726V163.998H130.966V147.198H144.622V151.47H136.534V153.438H143.638V157.518H136.534V159.726H144.934ZM147.114 147.198H152.778V159.606H160.362V163.998H147.114V147.198Z" fill="black"/>
<path d="M148.14 47.624C148.17 47.7552 148.189 47.9021 148.189 48.0303V69.499C148.189 69.773 148.119 70.0423 147.984 70.2794C147.85 70.5166 147.656 70.7131 147.423 70.849L129.765 81.2334V101.79C129.765 102.064 129.695 102.333 129.56 102.57C129.426 102.807 129.232 103.004 128.999 103.14L92.1387 124.787C92.0527 124.835 91.9612 124.873 91.8662 124.899L91.7712 124.949C91.5149 125.015 91.2467 125.015 90.9903 124.949C90.9516 124.937 90.9146 124.92 90.8801 124.899C90.7916 124.871 90.7063 124.833 90.6259 124.787L53.7809 103.14C53.5462 103.004 53.3504 102.808 53.2134 102.571C53.0763 102.334 53.0027 102.065 53 101.79V37.3865C53 37.2552 53.0306 37.1084 53.0643 36.9802C53.0796 36.9302 53.0949 36.899 53.1133 36.849L53.2082 36.6052C53.2236 36.5552 53.2726 36.524 53.3032 36.474L53.4471 36.2771C53.4987 36.2446 53.5469 36.207 53.5911 36.1646C53.6554 36.1146 53.7013 36.0677 53.7656 36.0334L72.1896 25.2084C72.4226 25.0718 72.6866 25 72.9552 25C73.2239 25 73.4879 25.0718 73.7209 25.2084L92.1602 36.0334C92.2245 36.0646 92.2704 36.1146 92.3194 36.1646L92.4787 36.2771C92.5258 36.3398 92.5687 36.4056 92.6073 36.474C92.6379 36.5052 92.6869 36.5552 92.7176 36.6052L92.8125 36.849C92.8278 36.899 92.8615 36.9302 92.8615 36.9802C92.9079 37.1103 92.9297 37.2482 92.9258 37.3865V77.6053L108.269 68.5896V48.0334C108.275 47.8487 108.313 47.6666 108.382 47.4959L108.477 47.2521C108.508 47.1865 108.557 47.1553 108.587 47.1052C108.636 47.0396 108.667 46.974 108.716 46.9271C108.765 46.8803 108.826 46.8459 108.875 46.8146C108.921 46.7626 108.975 46.7183 109.035 46.6834L127.474 35.8584C127.704 35.7141 127.969 35.6378 128.239 35.6378C128.51 35.6378 128.775 35.7141 129.005 35.8584L147.429 46.6834C147.493 46.7146 147.539 46.7646 147.604 46.8146C147.653 46.8459 147.699 46.8803 147.748 46.9271C147.797 46.974 147.843 47.0396 147.892 47.1052C147.922 47.1553 147.971 47.1865 147.986 47.2521C148.035 47.3334 148.051 47.4146 148.081 47.4959C148.112 47.5271 148.13 47.5771 148.146 47.6271L148.14 47.624ZM145.108 68.5865V50.749L138.664 54.524L129.765 59.7646V77.6021L145.108 68.5865ZM126.702 100.877V83.0209L117.928 88.1146L92.9166 102.699V120.718L126.702 100.877ZM56.0564 40.1021V100.877L89.8388 120.718V102.699L72.1804 92.4928C72.1161 92.4615 72.0702 92.4115 72.0212 92.3615C71.9722 92.3303 71.9109 92.2959 71.8772 92.249H71.8619C71.8129 92.199 71.7823 92.1365 71.7333 92.0865C71.7027 92.0365 71.6537 91.9896 71.6231 91.924C71.5874 91.8626 71.5606 91.7963 71.5434 91.7271C71.5128 91.6615 71.4791 91.6146 71.4638 91.549C71.4485 91.4834 71.4332 91.4021 71.4332 91.3209C71.4179 91.2552 71.4026 91.2084 71.4026 91.1428V49.1178L62.5029 43.8771L56.0564 40.1021ZM72.9491 28.3677L57.606 37.3834L72.9491 46.399L88.2922 37.3834L72.9491 28.3677ZM80.9392 84.6521L89.8388 79.4115V40.1053L83.3953 43.8802L74.4804 49.1209V88.4271L80.9392 84.6521ZM128.233 39.0115L112.872 48.0271L128.233 57.0428L143.576 48.0271L128.233 39.0115ZM126.702 59.7646L111.341 50.749V68.5865L120.24 73.8271L126.699 77.6021L126.702 59.7646ZM91.3731 99.9834L125.14 80.3209L109.812 71.3053L76.0606 91.1303L91.3731 99.9834Z" fill="black"/>
</svg>
