<svg width="200" height="200" viewBox="0 0 200 200" fill="none" xmlns="http://www.w3.org/2000/svg">
<rect width="200" height="200" rx="5" fill="#CCFF00"/>
<path d="M69.928 146.628V163.428H65.272L58.888 155.796V163.428H53.368V146.628H58.024L64.408 154.26V146.628H69.928ZM86.6251 159.156V163.428H72.6571V146.628H86.3131V150.9H78.2251V152.868H85.3291V156.948H78.2251V159.156H86.6251ZM95.0695 163.812C93.6775 163.812 92.3175 163.66 90.9895 163.356C89.6775 163.036 88.5975 162.612 87.7495 162.084L89.5735 157.956C90.3735 158.42 91.2695 158.796 92.2615 159.084C93.2535 159.356 94.2055 159.492 95.1175 159.492C95.9015 159.492 96.4615 159.42 96.7975 159.276C97.1335 159.116 97.3015 158.884 97.3015 158.58C97.3015 158.228 97.0775 157.964 96.6295 157.788C96.1975 157.612 95.4775 157.42 94.4695 157.212C93.1735 156.94 92.0935 156.652 91.2295 156.348C90.3655 156.028 89.6135 155.516 88.9735 154.812C88.3335 154.092 88.0135 153.124 88.0135 151.908C88.0135 150.852 88.3095 149.892 88.9015 149.028C89.4935 148.164 90.3735 147.484 91.5415 146.988C92.7255 146.492 94.1575 146.244 95.8375 146.244C96.9895 146.244 98.1175 146.372 99.2215 146.628C100.342 146.868 101.326 147.228 102.174 147.708L100.47 151.812C98.8215 150.98 97.2615 150.564 95.7895 150.564C94.3335 150.564 93.6055 150.916 93.6055 151.62C93.6055 151.956 93.8215 152.212 94.2535 152.388C94.6855 152.548 95.3975 152.724 96.3895 152.916C97.6695 153.156 98.7495 153.436 99.6295 153.756C100.51 154.06 101.27 154.564 101.91 155.268C102.566 155.972 102.894 156.932 102.894 158.148C102.894 159.204 102.598 160.164 102.006 161.028C101.414 161.876 100.526 162.556 99.3415 163.068C98.1735 163.564 96.7495 163.812 95.0695 163.812ZM107.993 151.02H103.073V146.628H118.577V151.02H113.657V163.428H107.993V151.02ZM124.061 163.812C122.749 163.812 121.557 163.604 120.485 163.188C119.429 162.756 118.557 162.132 117.869 161.316L120.917 157.716C121.365 158.276 121.805 158.692 122.237 158.964C122.669 159.236 123.117 159.372 123.581 159.372C124.173 159.372 124.621 159.196 124.925 158.844C125.245 158.492 125.405 157.972 125.405 157.284V150.9H119.693V146.628H130.997V156.948C130.997 159.236 130.405 160.956 129.221 162.108C128.053 163.244 126.333 163.812 124.061 163.812ZM139.859 163.812C138.467 163.812 137.107 163.66 135.779 163.356C134.467 163.036 133.387 162.612 132.539 162.084L134.363 157.956C135.163 158.42 136.059 158.796 137.051 159.084C138.043 159.356 138.995 159.492 139.907 159.492C140.691 159.492 141.251 159.42 141.587 159.276C141.923 159.116 142.091 158.884 142.091 158.58C142.091 158.228 141.867 157.964 141.419 157.788C140.987 157.612 140.267 157.42 139.259 157.212C137.963 156.94 136.883 156.652 136.019 156.348C135.155 156.028 134.403 155.516 133.763 154.812C133.123 154.092 132.803 153.124 132.803 151.908C132.803 150.852 133.099 149.892 133.691 149.028C134.283 148.164 135.163 147.484 136.331 146.988C137.515 146.492 138.947 146.244 140.627 146.244C141.779 146.244 142.907 146.372 144.011 146.628C145.131 146.868 146.115 147.228 146.963 147.708L145.259 151.812C143.611 150.98 142.051 150.564 140.579 150.564C139.123 150.564 138.395 150.916 138.395 151.62C138.395 151.956 138.611 152.212 139.043 152.388C139.475 152.548 140.187 152.724 141.179 152.916C142.459 153.156 143.539 153.436 144.419 153.756C145.299 154.06 146.059 154.564 146.699 155.268C147.355 155.972 147.683 156.932 147.683 158.148C147.683 159.204 147.387 160.164 146.795 161.028C146.203 161.876 145.315 162.556 144.131 163.068C142.963 163.564 141.539 163.812 139.859 163.812Z" fill="black"/>
<path d="M108.946 39.1517C107.129 36.2911 107.71 34.4048 108.713 32.4573C109.611 30.714 109.977 27.6843 106.805 25.3001C109.726 24.2249 114.335 26.1259 114.414 29.6077C112.719 31.9398 108.09 32.8665 108.946 39.1517ZM129.917 103.432C128.499 108.028 129.145 110.474 122.978 120.018C133.882 112.656 139.027 103.152 140.725 92.3659C141.791 96.8638 141.892 100.944 141.473 104.799C150.509 92.9028 156.7 68.9144 135.875 44.8007C135.038 55.4595 124.729 63.8521 112.841 60.5612C133.225 58.3142 134.531 32.3943 117.02 26.4091C117.362 33.62 107.523 31.2587 110.417 40.9056C100.396 35.2359 78.5008 34.0706 69.7967 42.6724C65.3096 47.1068 62.2467 50.7741 56.6387 51.0165C52.0084 51.2165 45.894 58.7302 53.8494 62.5728C54.6092 65.7749 57.2795 67.5982 58.828 67.9124C58.4426 73.6146 59.6557 70.7073 61.433 68.2218C60.8358 75.4298 61.8201 72.8331 64.6057 69.1247C88.1741 64.3583 101.19 83.5786 101.337 95.3837C101.233 93.2419 97.8094 90.7509 95.9975 91.437C94.7733 94.0308 93.4393 96.2321 91.793 97.3183C91.9651 95.5985 91.8477 93.8788 91.5352 92.1593C90.9922 94.2388 89.9701 96.3982 88.3366 98.6595C85.0869 98.8409 80.5391 96.4239 81.8619 92.4173C83.7282 88.5208 80.0678 87.7107 77.119 88.8261C74.9032 89.6644 73.4057 91.9858 73.201 92.7077C72.4617 95.3114 72.7049 101.125 77.7608 104.979C76.4354 105.223 75.0746 105.441 74.1494 105.985C82.7496 111.186 91.528 109.429 96.4162 107.466C104.42 104.253 109.94 95.3581 110.804 88.4966C113.025 98.1478 109.045 108.874 100.124 114.627C102.673 114.896 107.662 113.17 112.764 111.351C108.907 116.204 104.297 120.807 96.7451 124.428C111.62 123.182 122.5 115.714 129.917 103.432" fill="black"/>
</svg>
