<svg width="200" height="200" viewBox="0 0 200 200" fill="none" xmlns="http://www.w3.org/2000/svg">
<rect width="200" height="200" rx="5" fill="#CCFF00"/>
<path d="M82.3616 133.462V150.262H77.7056L71.3216 142.63V150.262H65.8016V133.462H70.4576L76.8416 141.094V133.462H82.3616ZM93.1307 150.646C90.5547 150.646 88.5467 149.95 87.1067 148.558C85.6667 147.166 84.9467 145.214 84.9467 142.702V133.462H90.6107V142.534C90.6107 143.766 90.8267 144.662 91.2587 145.222C91.7067 145.782 92.3467 146.062 93.1787 146.062C94.0107 146.062 94.6427 145.782 95.0747 145.222C95.5227 144.662 95.7467 143.766 95.7467 142.534V133.462H101.315V142.702C101.315 145.214 100.595 147.166 99.1547 148.558C97.7147 149.95 95.7067 150.646 93.1307 150.646ZM114.309 150.262L111.405 145.774L108.573 150.262H102.117L108.189 141.79L102.333 133.462H108.693L111.549 137.686L114.333 133.462H120.429L114.597 141.574L120.789 150.262H114.309ZM124.879 137.854H119.959V133.462H135.463V137.854H130.543V150.262H124.879V137.854Z" fill="black"/>
<path d="M132.172 108.6L132.269 108.403C132.363 108.25 132.44 108.086 132.497 107.916V107.9C132.806 107.088 132.872 106.225 132.725 105.359V105.391C132.564 104.474 132.233 103.596 131.747 102.803L131.778 102.834L109.609 63.8531L106.225 57.9438L80.7374 102.834C80.2967 103.616 80.0217 104.463 79.8749 105.341V105.391C79.6967 106.4 79.8092 107.425 80.2155 108.369L80.1999 108.338C80.2499 108.484 80.3311 108.616 80.4124 108.759L80.3967 108.744C81.0655 109.884 82.4811 111.25 85.6061 111.25H126.85C127.5 111.25 130.706 111.119 132.187 108.597L132.172 108.6ZM106.228 69.7812L126.475 105.394H85.9967L106.228 69.7812ZM148.934 102.841L119.703 51.3438C119.394 50.7906 117.719 48.0563 114.772 48.0563C113.453 48.0563 111.565 48.625 110.019 51.3281L106.244 57.9531L109.597 63.8781L114.806 54.65L143.728 105.416H132.725C132.872 106.263 132.79 107.125 132.497 107.938V107.906C132.431 108.084 132.365 108.266 132.269 108.428V108.413L132.172 108.609C130.69 111.131 127.5 111.263 126.881 111.263H144.084C144.719 111.263 147.894 111.131 149.375 108.609C150.044 107.453 150.497 105.534 148.934 102.847V102.841ZM80.4311 108.747L80.2342 108.356V108.341C79.8252 107.405 79.7003 106.369 79.8749 105.363V105.394H56.2405L91.3655 43.5938L102.887 63.8563L106.24 57.9469L96.1811 40.2375C95.903 39.7344 94.2124 37 91.2811 37C89.9624 37 88.0592 37.5688 86.528 40.2875L50.9499 102.838C50.6405 103.375 49.1749 106.206 50.6405 108.728C51.3092 109.884 52.7249 111.234 55.8499 111.234H85.6342C82.5405 111.234 81.0936 109.9 80.4249 108.728L80.4311 108.747Z" fill="black"/>
</svg>
