<svg width="200" height="200" viewBox="0 0 200 200" fill="none" xmlns="http://www.w3.org/2000/svg">
<rect width="200" height="200" rx="5" fill="#CCFF00"/>
<path d="M55.5576 147.2C57.1096 147.2 58.4616 147.456 59.6136 147.968C60.7656 148.48 61.6536 149.216 62.2776 150.176C62.9016 151.136 63.2136 152.256 63.2136 153.536C63.2136 154.816 62.9016 155.936 62.2776 156.896C61.6536 157.856 60.7656 158.592 59.6136 159.104C58.4616 159.616 57.1096 159.872 55.5576 159.872H53.1336V164H47.4696V147.2H55.5576ZM55.1976 155.504C55.9656 155.504 56.5416 155.336 56.9256 155C57.3096 154.648 57.5016 154.16 57.5016 153.536C57.5016 152.912 57.3096 152.432 56.9256 152.096C56.5416 151.744 55.9656 151.568 55.1976 151.568H53.1336V155.504H55.1976ZM75.0551 157.904V164H69.3911V157.832L63.0551 147.2H69.0311L72.4631 153.008L75.9191 147.2H81.3911L75.0551 157.904ZM85.2894 151.592H80.3694V147.2H95.8734V151.592H90.9534V164H85.2894V151.592ZM113.905 147.2V164H108.241V157.808H103.009V164H97.3446V147.2H103.009V153.152H108.241V147.2H113.905ZM125.442 164.384C123.634 164.384 122.01 164.008 120.57 163.256C119.13 162.504 118.002 161.464 117.186 160.136C116.37 158.792 115.962 157.28 115.962 155.6C115.962 153.92 116.37 152.416 117.186 151.088C118.002 149.744 119.13 148.696 120.57 147.944C122.01 147.192 123.634 146.816 125.442 146.816C127.25 146.816 128.874 147.192 130.314 147.944C131.754 148.696 132.882 149.744 133.698 151.088C134.514 152.416 134.922 153.92 134.922 155.6C134.922 157.28 134.514 158.792 133.698 160.136C132.882 161.464 131.754 162.504 130.314 163.256C128.874 164.008 127.25 164.384 125.442 164.384ZM125.442 159.8C126.146 159.8 126.778 159.632 127.338 159.296C127.914 158.944 128.37 158.456 128.706 157.832C129.042 157.192 129.21 156.448 129.21 155.6C129.21 154.752 129.042 154.016 128.706 153.392C128.37 152.752 127.914 152.264 127.338 151.928C126.778 151.576 126.146 151.4 125.442 151.4C124.738 151.4 124.098 151.576 123.522 151.928C122.962 152.264 122.514 152.752 122.178 153.392C121.842 154.016 121.674 154.752 121.674 155.6C121.674 156.448 121.842 157.192 122.178 157.832C122.514 158.456 122.962 158.944 123.522 159.296C124.098 159.632 124.738 159.8 125.442 159.8ZM153.537 147.2V164H148.881L142.497 156.368V164H136.977V147.2H141.633L148.017 154.832V147.2H153.537Z" fill="black"/>
<g clip-path="url(#clip0_256_3446)">
<path d="M100.642 25C75.25 25 76.8333 36.0667 76.8333 36.0667L76.8625 47.5333H101.087V50.975H67.25C67.25 50.975 51 49.1208 51 74.8708C51 100.621 65.1792 99.7042 65.1792 99.7042H73.6375V87.7583C73.6375 87.7583 73.1833 73.5083 87.5958 73.5083H111.621C111.621 73.5083 125.121 73.725 125.121 60.3917V38.3417C125.121 38.3417 127.167 25 100.637 25H100.642ZM87.2833 32.7083C89.6917 32.7083 91.6417 34.6667 91.6417 37.0917C91.6417 39.5125 89.6917 41.4708 87.2833 41.4708C84.8708 41.4708 82.925 39.5125 82.925 37.0917C82.925 34.6667 84.8708 32.7083 87.2833 32.7083Z" fill="black"/>
<path d="M101.363 125C126.746 125 125.163 113.933 125.163 113.933L125.133 102.467H100.908V99.025H134.754C134.754 99.025 151.004 100.879 151.004 75.1291C151.004 49.3791 136.821 50.2958 136.821 50.2958H128.363V62.2416C128.363 62.2416 128.817 76.4916 114.404 76.4916H90.3834C90.3834 76.4916 76.8834 76.275 76.8834 89.6083V111.658C76.8834 111.658 74.8334 125 101.363 125ZM114.721 117.292C112.308 117.292 110.363 115.333 110.363 112.908C110.363 110.487 112.308 108.529 114.721 108.529C117.129 108.529 119.079 110.487 119.079 112.908C119.079 115.333 117.129 117.292 114.721 117.292Z" fill="black"/>
</g>
<defs>
<clipPath id="clip0_256_3446">
<rect width="100" height="100" fill="white" transform="translate(51 25)"/>
</clipPath>
</defs>
</svg>
