<svg width="200" height="200" viewBox="0 0 200 200" fill="none" xmlns="http://www.w3.org/2000/svg">
<rect width="200" height="200" rx="5" fill="#CCFF00"/>
<path d="M72.5914 159.776H71.0554V164H65.3914V147.2H73.4794C75.0314 147.2 76.3834 147.456 77.5354 147.968C78.6874 148.48 79.5754 149.216 80.1994 150.176C80.8234 151.136 81.1354 152.256 81.1354 153.536C81.1354 154.736 80.8634 155.784 80.3194 156.68C79.7754 157.576 78.9914 158.288 77.9674 158.816L81.4954 164H75.4474L72.5914 159.776ZM75.4234 153.536C75.4234 152.912 75.2314 152.432 74.8474 152.096C74.4634 151.744 73.8874 151.568 73.1194 151.568H71.0554V155.504H73.1194C73.8874 155.504 74.4634 155.336 74.8474 155C75.2314 154.648 75.4234 154.16 75.4234 153.536ZM91.3143 164.384C88.7383 164.384 86.7303 163.688 85.2903 162.296C83.8503 160.904 83.1303 158.952 83.1303 156.44V147.2H88.7943V156.272C88.7943 157.504 89.0103 158.4 89.4423 158.96C89.8903 159.52 90.5303 159.8 91.3623 159.8C92.1943 159.8 92.8263 159.52 93.2583 158.96C93.7063 158.4 93.9303 157.504 93.9303 156.272V147.2H99.4983V156.44C99.4983 158.952 98.7783 160.904 97.3383 162.296C95.8983 163.688 93.8903 164.384 91.3143 164.384ZM115.535 155.216C116.527 155.584 117.295 156.12 117.839 156.824C118.383 157.528 118.655 158.376 118.655 159.368C118.655 160.84 118.047 161.984 116.831 162.8C115.615 163.6 113.855 164 111.551 164H102.095V147.2H111.071C113.311 147.2 114.999 147.6 116.135 148.4C117.287 149.2 117.863 150.264 117.863 151.592C117.863 152.376 117.663 153.08 117.263 153.704C116.879 154.328 116.303 154.832 115.535 155.216ZM107.663 151.16V153.656H110.303C111.535 153.656 112.151 153.24 112.151 152.408C112.151 151.576 111.535 151.16 110.303 151.16H107.663ZM111.071 160.04C112.319 160.04 112.943 159.6 112.943 158.72C112.943 157.84 112.319 157.4 111.071 157.4H107.663V160.04H111.071ZM130.29 157.904V164H124.626V157.832L118.289 147.2H124.266L127.698 153.008L131.154 147.2H136.626L130.29 157.904Z" fill="black"/>
<path d="M82.6301 57.9094L70.5087 70.2156L99.875 100.131L111.95 87.825L129.192 70.2156L117.102 57.8781V57.8281H82.5994L82.6301 57.9094ZM99.7464 25L57 50V100L99.7464 125L142.493 100V50L99.7464 25ZM134.328 95.2156L99.7464 115.544L65.1646 95.2156V54.6719L99.7464 34.3281L134.328 54.6719V95.2156Z" fill="black"/>
</svg>
