<svg width="200" height="200" viewBox="0 0 200 200" fill="none" xmlns="http://www.w3.org/2000/svg">
<rect width="200" height="200" rx="5" fill="#CCFF00"/>
<path d="M82.6672 164.384C81.2752 164.384 79.9152 164.232 78.5872 163.928C77.2752 163.608 76.1952 163.184 75.3472 162.656L77.1712 158.528C77.9712 158.992 78.8672 159.368 79.8592 159.656C80.8512 159.928 81.8032 160.064 82.7152 160.064C83.4992 160.064 84.0592 159.992 84.3952 159.848C84.7312 159.688 84.8992 159.456 84.8992 159.152C84.8992 158.8 84.6752 158.536 84.2272 158.36C83.7952 158.184 83.0752 157.992 82.0672 157.784C80.7712 157.512 79.6912 157.224 78.8272 156.92C77.9632 156.6 77.2112 156.088 76.5712 155.384C75.9312 154.664 75.6112 153.696 75.6112 152.48C75.6112 151.424 75.9072 150.464 76.4992 149.6C77.0912 148.736 77.9712 148.056 79.1392 147.56C80.3232 147.064 81.7552 146.816 83.4352 146.816C84.5872 146.816 85.7152 146.944 86.8192 147.2C87.9392 147.44 88.9232 147.8 89.7712 148.28L88.0672 152.384C86.4192 151.552 84.8592 151.136 83.3872 151.136C81.9312 151.136 81.2032 151.488 81.2032 152.192C81.2032 152.528 81.4192 152.784 81.8512 152.96C82.2832 153.12 82.9952 153.296 83.9872 153.488C85.2672 153.728 86.3472 154.008 87.2272 154.328C88.1072 154.632 88.8672 155.136 89.5072 155.84C90.1632 156.544 90.4912 157.504 90.4912 158.72C90.4912 159.776 90.1952 160.736 89.6032 161.6C89.0112 162.448 88.1232 163.128 86.9392 163.64C85.7712 164.136 84.3472 164.384 82.6672 164.384ZM111.377 166.112C110.785 166.816 110.073 167.344 109.241 167.696C108.409 168.064 107.489 168.248 106.481 168.248C105.473 168.248 104.569 168.12 103.769 167.864C102.969 167.624 102.169 167.208 101.369 166.616C100.569 166.04 99.6566 165.216 98.6326 164.144C97.2246 163.856 95.9846 163.312 94.9126 162.512C93.8406 161.696 93.0006 160.696 92.3926 159.512C91.8006 158.328 91.5046 157.024 91.5046 155.6C91.5046 153.92 91.9126 152.416 92.7286 151.088C93.5446 149.744 94.6726 148.696 96.1126 147.944C97.5526 147.192 99.1766 146.816 100.985 146.816C102.793 146.816 104.417 147.192 105.857 147.944C107.297 148.696 108.425 149.744 109.241 151.088C110.057 152.416 110.465 153.92 110.465 155.6C110.465 157.44 109.977 159.072 109.001 160.496C108.025 161.904 106.705 162.944 105.041 163.616C105.281 163.872 105.521 164.048 105.761 164.144C106.017 164.256 106.297 164.312 106.601 164.312C107.433 164.312 108.209 163.952 108.929 163.232L111.377 166.112ZM100.985 151.4C100.281 151.4 99.6406 151.576 99.0646 151.928C98.5046 152.264 98.0566 152.752 97.7206 153.392C97.3846 154.016 97.2166 154.752 97.2166 155.6C97.2166 156.448 97.3846 157.192 97.7206 157.832C98.0566 158.456 98.5046 158.944 99.0646 159.296C99.6406 159.632 100.281 159.8 100.985 159.8C101.689 159.8 102.321 159.632 102.881 159.296C103.457 158.944 103.913 158.456 104.249 157.832C104.585 157.192 104.753 156.448 104.753 155.6C104.753 154.752 104.585 154.016 104.249 153.392C103.913 152.752 103.457 152.264 102.881 151.928C102.321 151.576 101.689 151.4 100.985 151.4ZM112.52 147.2H118.184V159.608H125.768V164H112.52V147.2Z" fill="black"/>
<path d="M76.7559 72.675C84.2184 75.298 92.0911 76.5607 99.9996 76.4031C107.908 76.5597 115.781 75.296 123.243 72.6719C129.068 70.4 131.134 67.875 131.134 66.4219V55.3125C129.097 56.6763 126.913 57.8044 124.621 58.675C116.726 61.5022 108.385 62.8806 99.9996 62.7438C91.615 62.878 83.2748 61.5019 75.3777 58.6813C73.0854 57.8106 70.9004 56.6803 68.8652 55.3125V66.4063C68.8652 67.8875 70.9371 70.4 76.7559 72.675Z" fill="black"/>
<path d="M76.7559 93.6281C79.3921 94.6335 82.1107 95.4083 84.8809 95.9437C89.8622 96.9074 94.9259 97.3815 99.9996 97.3594C105.073 97.3825 110.137 96.9095 115.118 95.9469C117.889 95.4113 120.607 94.6366 123.243 93.6312C129.068 91.3594 131.134 88.8344 131.134 87.3812V76.7875C129.451 77.8004 127.681 78.6631 125.846 79.3656C117.552 82.3024 108.797 83.7239 99.9996 83.5625C91.2011 83.7189 82.4462 82.292 74.1527 79.35C72.3187 78.6457 70.5496 77.7831 68.8652 76.7719V87.375C68.8652 88.8312 70.9371 91.3469 76.7559 93.6281Z" fill="black"/>
<path d="M99.9996 118.75C117.187 118.75 131.134 113.3 131.134 106.581V97.7156C129.603 98.6387 127.998 99.4351 126.337 100.097L125.846 100.294C117.554 103.239 108.799 104.669 99.9996 104.516C91.2002 104.674 82.4445 103.243 74.1527 100.294C73.984 100.231 73.8215 100.159 73.6621 100.097C72.0009 99.4351 70.3966 98.6387 68.8652 97.7156V106.581C68.8652 113.3 82.8121 118.75 99.9996 118.75Z" fill="black"/>
<path d="M99.9996 55.5875C117.195 55.5875 131.134 50.1394 131.134 43.4187C131.134 36.6981 117.195 31.25 99.9996 31.25C82.8046 31.25 68.8652 36.6981 68.8652 43.4187C68.8652 50.1394 82.8046 55.5875 99.9996 55.5875Z" fill="black"/>
</svg>
