<svg width="200" height="200" viewBox="0 0 200 200" fill="none" xmlns="http://www.w3.org/2000/svg">
<rect width="200" height="200" rx="5" fill="#CCFF00"/>
<path d="M66.1203 158.39C64.7283 158.39 63.3683 158.238 62.0403 157.934C60.7283 157.614 59.6483 157.19 58.8003 156.662L60.6243 152.534C61.4243 152.998 62.3203 153.374 63.3123 153.662C64.3043 153.934 65.2563 154.07 66.1683 154.07C66.9523 154.07 67.5123 153.998 67.8483 153.854C68.1843 153.694 68.3523 153.462 68.3523 153.158C68.3523 152.806 68.1283 152.542 67.6803 152.366C67.2483 152.19 66.5283 151.998 65.5203 151.79C64.2243 151.518 63.1443 151.23 62.2803 150.926C61.4163 150.606 60.6643 150.094 60.0243 149.39C59.3843 148.67 59.0643 147.702 59.0643 146.486C59.0643 145.43 59.3603 144.47 59.9523 143.606C60.5443 142.742 61.4243 142.062 62.5923 141.566C63.7763 141.07 65.2083 140.822 66.8883 140.822C68.0403 140.822 69.1683 140.95 70.2723 141.206C71.3923 141.446 72.3763 141.806 73.2243 142.286L71.5203 146.39C69.8723 145.558 68.3123 145.142 66.8403 145.142C65.3843 145.142 64.6563 145.494 64.6563 146.198C64.6563 146.534 64.8723 146.79 65.3043 146.966C65.7363 147.126 66.4483 147.302 67.4403 147.494C68.7203 147.734 69.8003 148.014 70.6803 148.334C71.5603 148.638 72.3203 149.142 72.9603 149.846C73.6163 150.55 73.9443 151.51 73.9443 152.726C73.9443 153.782 73.6483 154.742 73.0563 155.606C72.4643 156.454 71.5763 157.134 70.3923 157.646C69.2243 158.142 67.8003 158.39 66.1203 158.39ZM102.966 141.206L97.5897 158.006H91.5177L88.8057 149.03L85.9497 158.006H79.8777L74.5017 141.206H80.3337L83.2617 150.758L86.3577 141.206H91.5657L94.4937 150.878L97.5897 141.206H102.966ZM104.223 141.206H109.887V158.006H104.223V141.206ZM118.278 145.478V148.358H125.286V152.63H118.278V158.006H112.614V141.206H126.27V145.478H118.278ZM131.825 145.598H126.905V141.206H142.409V145.598H137.489V158.006H131.825V145.598Z" fill="black"/>
<path d="M141.603 92.6156C141.831 92.1406 141.831 91.6875 142.078 91.2156C147.675 69.2406 134.362 43.5406 111.462 30C121.503 43.5406 125.475 59.6719 121.975 74.1594C121.698 75.4391 121.306 76.691 120.803 77.9C120.161 77.5395 119.536 77.1484 118.931 76.7281C118.931 76.7281 96.2719 62.7156 71.9719 38.1687C71.2719 37.4688 85.0594 57.7969 100.472 73.9281C93.2312 69.7156 72.6719 55 59.8125 43.0875C61.2125 45.6406 63.3281 48.2125 65.4281 50.7875C76.1687 64.5719 90.2 81.4 107.016 94.2406C95.1 101.5 78.5156 101.956 61.6875 94.2406C57.4875 92.3875 53.9719 90.0406 50 87.2437C57.0156 98.2281 68 108.269 81.0875 113.644C96.7469 120.428 112.628 119.956 124.072 113.644H124.319C124.772 113.416 125.247 113.169 125.719 112.716C131.319 109.9 142.303 106.875 148.372 118.556C150.019 121.828 153.044 106.644 141.6 92.6156H141.603Z" fill="black"/>
</svg>
