<svg width="200" height="200" viewBox="0 0 200 200" fill="none" xmlns="http://www.w3.org/2000/svg">
<rect width="200" height="200" rx="5" fill="#CCFF00"/>
<path d="M24.6746 177.384C23.3626 177.384 22.1706 177.176 21.0986 176.76C20.0426 176.328 19.1706 175.704 18.4826 174.888L21.5306 171.288C21.9786 171.848 22.4186 172.264 22.8506 172.536C23.2826 172.808 23.7306 172.944 24.1946 172.944C24.7866 172.944 25.2346 172.768 25.5386 172.416C25.8586 172.064 26.0186 171.544 26.0186 170.856V164.472H20.3066V160.2H31.6106V170.52C31.6106 172.808 31.0186 174.528 29.8346 175.68C28.6666 176.816 26.9466 177.384 24.6746 177.384ZM45.3043 174.072H38.9203L37.7923 177H32.0323L39.3763 160.2H44.9443L52.2883 177H46.4323L45.3043 174.072ZM43.7443 169.992L42.1123 165.768L40.4803 169.992H43.7443ZM70.1833 160.2L63.0793 177H57.5113L50.4073 160.2H56.5033L60.5113 170.016L64.6153 160.2H70.1833ZM81.5855 174.072H75.2015L74.0735 177H68.3135L75.6575 160.2H81.2255L88.5695 177H82.7135L81.5855 174.072ZM80.0255 169.992L78.3935 165.768L76.7615 169.992H80.0255ZM95.7375 177.384C94.3455 177.384 92.9855 177.232 91.6575 176.928C90.3455 176.608 89.2655 176.184 88.4175 175.656L90.2415 171.528C91.0415 171.992 91.9375 172.368 92.9295 172.656C93.9215 172.928 94.8735 173.064 95.7855 173.064C96.5695 173.064 97.1295 172.992 97.4655 172.848C97.8015 172.688 97.9695 172.456 97.9695 172.152C97.9695 171.8 97.7455 171.536 97.2975 171.36C96.8655 171.184 96.1455 170.992 95.1375 170.784C93.8415 170.512 92.7615 170.224 91.8975 169.92C91.0335 169.6 90.2815 169.088 89.6415 168.384C89.0015 167.664 88.6815 166.696 88.6815 165.48C88.6815 164.424 88.9775 163.464 89.5695 162.6C90.1615 161.736 91.0415 161.056 92.2095 160.56C93.3935 160.064 94.8255 159.816 96.5055 159.816C97.6575 159.816 98.7855 159.944 99.8895 160.2C101.009 160.44 101.993 160.8 102.841 161.28L101.137 165.384C99.4895 164.552 97.9295 164.136 96.4575 164.136C95.0015 164.136 94.2735 164.488 94.2735 165.192C94.2735 165.528 94.4895 165.784 94.9215 165.96C95.3535 166.12 96.0655 166.296 97.0575 166.488C98.3375 166.728 99.4175 167.008 100.297 167.328C101.177 167.632 101.937 168.136 102.577 168.84C103.233 169.544 103.561 170.504 103.561 171.72C103.561 172.776 103.265 173.736 102.673 174.6C102.081 175.448 101.193 176.128 100.009 176.64C98.8415 177.136 97.4175 177.384 95.7375 177.384ZM113.935 177.384C112.159 177.384 110.559 177.016 109.135 176.28C107.711 175.528 106.591 174.488 105.775 173.16C104.975 171.816 104.575 170.296 104.575 168.6C104.575 166.904 104.975 165.392 105.775 164.064C106.591 162.72 107.711 161.68 109.135 160.944C110.559 160.192 112.159 159.816 113.935 159.816C115.567 159.816 117.023 160.104 118.303 160.68C119.583 161.256 120.639 162.088 121.471 163.176L117.895 166.368C116.855 165.056 115.631 164.4 114.223 164.4C113.039 164.4 112.087 164.784 111.367 165.552C110.647 166.304 110.287 167.32 110.287 168.6C110.287 169.88 110.647 170.904 111.367 171.672C112.087 172.424 113.039 172.8 114.223 172.8C115.631 172.8 116.855 172.144 117.895 170.832L121.471 174.024C120.639 175.112 119.583 175.944 118.303 176.52C117.023 177.096 115.567 177.384 113.935 177.384ZM130.306 172.776H128.77V177H123.106V160.2H131.194C132.746 160.2 134.098 160.456 135.25 160.968C136.402 161.48 137.29 162.216 137.914 163.176C138.538 164.136 138.85 165.256 138.85 166.536C138.85 167.736 138.578 168.784 138.034 169.68C137.49 170.576 136.706 171.288 135.682 171.816L139.21 177H133.162L130.306 172.776ZM133.138 166.536C133.138 165.912 132.946 165.432 132.562 165.096C132.178 164.744 131.602 164.568 130.834 164.568H128.77V168.504H130.834C131.602 168.504 132.178 168.336 132.562 168C132.946 167.648 133.138 167.16 133.138 166.536ZM140.989 160.2H146.653V177H140.989V160.2ZM157.468 160.2C159.02 160.2 160.372 160.456 161.524 160.968C162.676 161.48 163.564 162.216 164.188 163.176C164.812 164.136 165.124 165.256 165.124 166.536C165.124 167.816 164.812 168.936 164.188 169.896C163.564 170.856 162.676 171.592 161.524 172.104C160.372 172.616 159.02 172.872 157.468 172.872H155.044V177H149.38V160.2H157.468ZM157.108 168.504C157.876 168.504 158.452 168.336 158.836 168C159.22 167.648 159.412 167.16 159.412 166.536C159.412 165.912 159.22 165.432 158.836 165.096C158.452 164.744 157.876 164.568 157.108 164.568H155.044V168.504H157.108ZM170.254 164.592H165.334V160.2H180.838V164.592H175.918V177H170.254V164.592Z" fill="black"/>
<g clip-path="url(#clip0_256_3439)">
<path fill-rule="evenodd" clip-rule="evenodd" d="M49 38H151.597V138H49V38ZM127.431 121.833C122.673 121.833 119.985 119.417 117.92 116.125L110.084 120.562C112.914 126.012 118.698 130.171 127.654 130.171C136.811 130.171 143.629 125.537 143.629 117.075C143.629 109.229 139.004 105.742 130.813 102.312L128.402 101.308C124.264 99.5583 122.473 98.4208 122.473 95.6C122.473 93.3208 124.268 91.575 127.089 91.575C129.855 91.575 131.638 92.7125 133.292 95.6L140.799 90.9042C137.623 85.4583 133.22 83.3792 127.089 83.3792C118.48 83.3792 112.969 88.7458 112.969 95.7958C112.969 103.442 117.586 107.062 124.546 109.95L126.957 110.958C131.356 112.833 133.976 113.975 133.976 117.196C133.976 119.887 131.424 121.833 127.431 121.833ZM90.0689 121.771C86.7558 121.771 85.3751 119.562 83.8617 116.937L76.013 121.571C78.2873 126.262 82.7588 130.154 90.475 130.154C99.0205 130.154 104.873 125.725 104.873 115.996V83.9125H95.233V115.871C95.233 120.567 93.2323 121.771 90.0646 121.771H90.0689Z" fill="black"/>
</g>
<defs>
<clipPath id="clip0_256_3439">
<rect width="102.597" height="100" fill="white" transform="translate(49 38)"/>
</clipPath>
</defs>
</svg>
