<svg width="200" height="200" viewBox="0 0 200 200" fill="none" xmlns="http://www.w3.org/2000/svg">
<rect width="200" height="200" rx="5" fill="#CCFF00"/>
<path d="M92.2435 160.784C90.4675 160.784 88.8675 160.416 87.4435 159.68C86.0195 158.928 84.8995 157.888 84.0835 156.56C83.2835 155.216 82.8835 153.696 82.8835 152C82.8835 150.304 83.2835 148.792 84.0835 147.464C84.8995 146.12 86.0195 145.08 87.4435 144.344C88.8675 143.592 90.4675 143.216 92.2435 143.216C93.8755 143.216 95.3315 143.504 96.6115 144.08C97.8915 144.656 98.9475 145.488 99.7795 146.576L96.2035 149.768C95.1635 148.456 93.9395 147.8 92.5315 147.8C91.3475 147.8 90.3955 148.184 89.6755 148.952C88.9555 149.704 88.5955 150.72 88.5955 152C88.5955 153.28 88.9555 154.304 89.6755 155.072C90.3955 155.824 91.3475 156.2 92.5315 156.2C93.9395 156.2 95.1635 155.544 96.2035 154.232L99.7795 157.424C98.9475 158.512 97.8915 159.344 96.6115 159.92C95.3315 160.496 93.8755 160.784 92.2435 160.784ZM114.135 150.488L113.775 153.512H116.679V157.112H113.319L112.911 160.4H109.071L109.479 157.112H107.103L106.695 160.4H102.855L103.263 157.112H100.359V153.512H103.719L104.079 150.488H101.175V146.888H104.535L104.943 143.6H108.783L108.375 146.888H110.751L111.159 143.6H114.999L114.591 146.888H117.495V150.488H114.135ZM110.295 150.488H107.919L107.559 153.512H109.935L110.295 150.488Z" fill="black"/>
<path d="M116.75 77.5334V70.8667H123.278V77.5334H116.75Z" fill="black"/>
<path fill-rule="evenodd" clip-rule="evenodd" d="M100.431 27.0067L142.861 52.2867V96.1133L100.431 121.4L58 96.1133V52.2867L100.431 27V27.0067ZM92.8061 50.8667C87.0375 50.8667 81.5052 53.207 77.4261 57.3728C73.3471 61.5386 71.0556 67.1887 71.0556 73.08V75.32C71.0564 79.1053 72.0044 82.8275 73.8096 86.1335C75.6147 89.4394 78.2172 92.2195 81.3699 94.2097C84.5226 96.2 88.121 97.3344 91.8237 97.5054C95.5263 97.6764 99.2102 96.8782 102.526 95.1867L105.157 93.8533L102.232 87.8867L99.6081 89.22C97.2885 90.4052 94.7108 90.9653 92.1197 90.8469C89.5286 90.7285 87.0101 89.9357 84.8034 88.5437C82.5967 87.1517 80.775 85.2068 79.5114 82.8935C78.2477 80.5803 77.584 77.9755 77.5833 75.3267V73.0867C77.5836 70.4373 78.2468 67.8321 79.51 65.518C80.7732 63.204 82.5945 61.2581 84.8009 59.8649C87.0074 58.4717 89.5259 57.6775 92.1174 57.5576C94.7088 57.4377 97.2873 57.9962 99.6081 59.18L102.232 60.52L105.157 54.56L102.526 53.22C99.5067 51.6751 96.1766 50.8693 92.7996 50.8667H92.8061ZM110.222 57.5333V64.2H103.694V70.8667H110.222V77.5333H103.694V84.2H110.222V90.8667H116.75V84.2H123.278V90.8667H129.806V84.2H136.333V77.5333H129.806V70.8667H136.333V64.2H129.806V57.5333H123.278V64.2H116.75V57.5333H110.222Z" fill="black"/>
</svg>
