<svg width="44" height="40" viewBox="0 0 44 40" fill="none"
    xmlns="http://www.w3.org/2000/svg">
    <path d="M31.711 0.152749C31.283 0.17795 30.8651 0.208191 30.7795 0.228352C30.6989 0.248513 30.4119 0.303955 30.1501 0.354357C28.2115 0.737413 26.4794 1.438 24.9134 2.47124C22.6929 3.93794 20.7895 6.16067 19.6163 8.66062C19.2538 9.43681 19.1883 9.58801 19.1481 9.72914C19.1279 9.7997 19.0927 9.8753 19.0725 9.90555C19.0272 9.97107 18.6043 11.216 18.4935 11.6192C18.2316 12.5869 18.1108 13.0506 18.0856 13.2069C18.0756 13.3026 18.0302 13.5295 17.99 13.7109C17.7885 14.603 17.713 15.4347 17.713 16.7098C17.713 18.1211 17.8036 18.9326 18.0403 19.7339C18.1158 19.9809 18.1763 20.2178 18.1813 20.248C18.1813 20.2833 18.2014 20.3136 18.2216 20.3136C18.2417 20.3136 18.2719 20.3741 18.2921 20.4497C18.3072 20.5253 18.3777 20.7117 18.4482 20.8579C18.5136 21.0041 18.569 21.1301 18.569 21.1402C18.569 21.1855 19.002 21.9315 19.2135 22.244C19.7271 23.0202 20.568 23.8417 21.3887 24.376C21.5952 24.5121 21.7815 24.6431 21.7966 24.6633C21.8117 24.6885 21.8419 24.7036 21.8621 24.7036C21.8973 24.6935 22.2095 24.8498 22.2447 24.8951C22.2598 24.9102 22.3404 24.9506 22.421 24.9858C22.5066 25.0161 22.7634 25.1219 23 25.2177C23.4784 25.4193 24.1883 25.6411 24.4753 25.6915C24.5761 25.7066 24.6617 25.7368 24.6617 25.752C24.6617 25.7721 24.7019 25.7872 24.7523 25.7923C24.7976 25.7923 25.2357 25.8578 25.7191 25.9334C26.5096 26.0594 26.7362 26.0695 27.9094 26.0745C28.992 26.0745 29.3495 26.0544 29.9738 25.9636C30.7392 25.8528 31.706 25.6562 32.1037 25.5251C32.2246 25.4848 32.3404 25.4647 32.3656 25.4798C32.3908 25.4949 32.4159 25.4899 32.426 25.4697C32.431 25.4445 32.6022 25.3739 32.7936 25.3084C33.9618 24.9153 35.3616 24.2298 36.0816 23.7006C36.1672 23.63 36.2427 23.5947 36.2427 23.6199C36.2427 23.6401 36.2729 23.625 36.3082 23.5847C36.3384 23.5393 36.575 23.3478 36.8218 23.1562C37.3102 22.7833 38.4079 21.6996 38.7352 21.2662C39.0272 20.8781 39.4401 20.238 39.5156 20.0616C39.5509 19.9809 39.561 19.8751 39.5458 19.8297C39.5156 19.7541 39.5005 19.7541 39.3948 19.8549C39.3344 19.9154 39.1481 20.1624 38.9869 20.4043C37.8036 22.1684 36.1722 23.504 34.0524 24.4516C33.8107 24.5625 33.0756 24.7893 32.8691 24.8246C32.7432 24.8447 32.6073 24.88 32.567 24.9002C32.4159 24.9808 31.5197 25.0564 30.7543 25.0564C29.6617 25.0614 29.2337 24.9959 28.287 24.6935C27.0484 24.2953 26.1471 23.5292 25.568 22.3851C25.2357 21.7248 24.9789 20.747 24.9033 19.86C24.848 19.1896 24.8832 17.2542 24.9638 16.6846C25.1199 15.5455 25.5025 13.5295 25.8751 11.8813C25.9305 11.6394 25.9859 11.337 26.0061 11.216C26.0212 11.09 26.0514 10.9892 26.0715 10.9892C26.0866 10.9892 26.1017 10.9489 26.1017 10.8985C26.0967 10.7624 26.2377 10.0316 26.2679 10.0316C26.288 10.0316 26.3031 9.97107 26.3082 9.89043C26.3082 9.81482 26.3585 9.53761 26.419 9.27552C26.5348 8.74126 26.711 7.8945 26.8721 7.13343C26.9275 6.85622 27.0333 6.35724 27.1037 6.02459C27.1742 5.69193 27.2598 5.28368 27.2901 5.11735C27.3253 4.95102 27.3605 4.80486 27.3757 4.78974C27.3958 4.77462 27.4109 4.71917 27.4109 4.66373C27.421 4.54781 27.567 3.8321 27.7533 2.97526C28.1259 1.27167 28.1309 1.25655 28.4028 1.12551C28.6345 1.01462 29.4049 0.813016 30.1299 0.681971C30.5277 0.611408 31.4089 0.571086 31.9779 0.596287C32.2196 0.611408 33.136 0.828137 33.3978 0.933981C35.6184 1.84626 37.1289 4.20003 37.9094 7.96507C38.0756 8.78662 38.3072 10.2029 38.3021 10.3944C38.2971 10.5557 38.3978 11.2362 38.4331 11.2966C38.4532 11.3218 38.4834 11.342 38.5035 11.342C38.5539 11.342 40.3162 8.97311 42.1491 6.44797C42.3354 6.18587 42.6224 5.79274 42.7835 5.57097C43.3122 4.84518 43.7956 4.11939 43.7956 4.05891C43.7956 3.93794 42.4512 2.9803 41.6053 2.49644C41.4693 2.42084 41.3384 2.33012 41.3183 2.29988C41.2981 2.26964 41.278 2.2646 41.278 2.28476C41.278 2.33012 40.8097 2.06803 40.7845 2.00754C40.7744 1.98738 40.7392 1.96722 40.709 1.96722C40.6737 1.96722 40.5126 1.9017 40.3464 1.82106C39.2085 1.27167 38.0202 0.848297 36.7714 0.545885C36.1471 0.394679 35.0997 0.208191 34.707 0.18299C34.0121 0.127548 32.4764 0.117468 31.711 0.152749Z" fill="black"/>
    <path d="M6.50955 0.429945C6.48437 0.440025 6.11176 0.455146 5.68377 0.465226C5.16514 0.475306 4.89827 0.500507 4.8882 0.535789C4.87813 0.56603 4.90834 0.606352 4.95365 0.626512C4.99897 0.641633 5.63845 0.671874 6.37863 0.686995C7.11378 0.702115 7.73815 0.732357 7.76332 0.757558C7.81368 0.80796 7.69786 1.48839 7.31519 3.27766C7.13392 4.11937 7.00804 4.71412 6.88719 5.29374C6.75124 5.95905 6.54983 6.89148 6.42898 7.46103C6.37359 7.72312 6.26785 8.21202 6.19736 8.54467C6.12687 8.87732 6.0312 9.34102 5.98085 9.57791C5.93049 9.8148 5.84489 10.2231 5.78951 10.4851C5.73412 10.7472 5.62838 11.2462 5.55285 11.594C5.40683 12.2593 5.30109 12.7532 5.12989 13.5849C5.0745 13.8621 4.96876 14.3611 4.89827 14.6937C4.82274 15.0264 4.74217 15.4094 4.717 15.5506C4.69182 15.6866 4.65658 15.8378 4.63643 15.8782C4.62133 15.9185 4.60622 16.0092 4.59615 16.0798C4.59112 16.1503 4.52566 16.488 4.45013 16.8358C4.3746 17.1836 4.27893 17.6221 4.23865 17.8186C4.19837 18.0102 4.13794 18.3176 4.09766 18.4991C4.05738 18.6805 3.97178 19.0535 3.91639 19.3307C3.85597 19.6079 3.79555 19.87 3.78044 19.9103C3.7603 19.9506 3.75527 20.0162 3.7603 20.0515C3.76534 20.0817 3.7452 20.1976 3.71498 20.3035C3.68477 20.4043 3.61428 20.7168 3.55889 20.994C3.49847 21.2712 3.41287 21.6895 3.36252 21.9264C3.31216 22.1633 3.2316 22.5564 3.18125 22.8084C3.1309 23.0554 3.07551 23.2721 3.0604 23.2873C3.0453 23.3024 3.03019 23.3679 3.02516 23.4385C3.02012 23.509 2.96977 23.7812 2.91438 24.0433C2.85899 24.3054 2.76836 24.7388 2.71297 25.0009C2.65758 25.263 2.55184 25.7519 2.48135 26.0846C2.41086 26.4172 2.31519 26.8809 2.26987 27.1178C2.22455 27.3547 2.16916 27.5563 2.14399 27.5614C2.12385 27.5714 2.11378 27.5966 2.12385 27.6118C2.14399 27.647 2.04328 28.1662 1.79152 29.3355C1.73613 29.5976 1.65053 30.0058 1.60018 30.2427C1.54983 30.4796 1.44912 30.9534 1.37359 31.3012C1.29807 31.649 1.21247 32.0723 1.18226 32.2437C1.15204 32.4201 1.11176 32.5612 1.08659 32.5612C1.06141 32.5612 1.05637 32.5864 1.07652 32.6167C1.09162 32.6469 1.08659 32.7578 1.05134 32.8586C0.950634 33.2013 0.729083 34.4311 0.769365 34.4664C0.824753 34.5219 0.980845 34.2951 1.09666 33.9826C1.15204 33.8263 1.23261 33.6247 1.27289 33.534C1.31317 33.4483 1.34842 33.3626 1.34842 33.3475C1.34842 33.3021 1.60522 32.7427 1.87712 32.2034C2.30512 31.3465 3.10572 30.1067 3.18628 30.1823C3.20642 30.2024 3.21146 30.1923 3.20139 30.1621C3.15607 30.0008 4.40481 28.7105 5.13996 28.1611C6.02616 27.4958 7.21952 26.8356 8.24671 26.4424C8.50854 26.3416 8.77037 26.2358 8.82576 26.2106C8.88115 26.1904 9.16312 26.0947 9.45517 26.0039C9.74721 25.9132 10.0191 25.8074 10.0644 25.7721C10.15 25.7015 10.2608 25.3285 10.3867 24.7237C10.4219 24.5272 10.5176 24.0887 10.5881 23.7409C10.7794 22.8387 10.8952 22.2893 11.0463 21.5736C11.1168 21.2258 11.2225 20.7369 11.2729 20.4899C11.3283 20.2379 11.4139 19.8297 11.4693 19.5827C11.5196 19.3307 11.6254 18.8468 11.6959 18.4991C11.7714 18.1513 11.8721 17.6775 11.9224 17.4406C11.9728 17.2037 12.0584 16.7955 12.1138 16.5334C12.1742 16.2713 12.2799 15.7723 12.3504 15.4245C12.426 15.0768 12.5267 14.603 12.577 14.3661C12.6274 14.1292 12.7281 13.6554 12.8036 13.3077C12.8791 12.9599 12.9647 12.5415 12.9949 12.3752C13.0201 12.2089 13.0604 12.0627 13.0755 12.0476C13.0906 12.0325 13.1108 11.967 13.1158 11.8964C13.1309 11.6948 13.2971 10.8632 13.3273 10.838C13.3424 10.8228 13.3676 10.7422 13.3726 10.6616C13.3927 10.4851 13.5085 9.93577 13.8862 8.16665C13.9869 7.71808 14.1833 6.79068 14.3444 6.02457C14.3947 5.77256 14.4954 5.29878 14.5659 4.96613C14.6364 4.63347 14.7422 4.13449 14.7976 3.85728C14.9637 3.06093 15.0745 2.54179 15.2205 1.8664C15.2961 1.51863 15.3817 1.11541 15.4119 0.969246L15.4622 0.707156L16.1722 0.702115C16.5649 0.702115 16.9375 0.692035 17.008 0.681955C17.0785 0.671874 17.4159 0.651713 17.7533 0.636593C18.428 0.606352 18.5941 0.56099 18.3172 0.490427C18.146 0.445065 6.61025 0.384583 6.50955 0.429945Z" fill="black"/>
    <path d="M0.0895996 38.418V39.1287L19.0372 39.0934C29.4552 39.0732 39.0977 39.0581 40.4622 39.0631H42.9395V38.418V37.7678L33.7905 37.7375C28.7603 37.7174 19.1178 37.7022 12.3655 37.7022H0.0895996V38.418Z" fill="black"/>
</svg>
