<svg width="65" height="59" viewBox="0 0 65 59" fill="none"
    xmlns="http://www.w3.org/2000/svg">
    <path d="M46.8923 0.381978C46.2588 0.419323 45.6403 0.464136 45.5136 0.494011C45.3944 0.523887 44.9696 0.606045 44.5821 0.680733C41.713 1.24837 39.1495 2.28654 36.8318 3.81766C33.5454 5.99111 30.7285 9.28488 28.9922 12.9894C28.4556 14.1397 28.3587 14.3637 28.2991 14.5729C28.2693 14.6774 28.2171 14.7894 28.1873 14.8343C28.1202 14.9314 27.4943 16.7762 27.3303 17.3737C26.9428 18.8077 26.764 19.4948 26.7267 19.7264C26.7118 19.8683 26.6447 20.2044 26.5851 20.4733C26.287 21.7953 26.1752 23.0276 26.1752 24.9173C26.1752 27.0085 26.3094 28.211 26.6596 29.3986C26.7714 29.7646 26.8608 30.1156 26.8683 30.1604C26.8683 30.2127 26.8981 30.2575 26.9279 30.2575C26.9577 30.2575 27.0024 30.3471 27.0322 30.4592C27.0546 30.5712 27.1589 30.8475 27.2632 31.0641C27.3601 31.2807 27.4421 31.4675 27.4421 31.4824C27.4421 31.5496 28.083 32.655 28.396 33.1181C29.1561 34.2683 30.4006 35.4857 31.6153 36.2774C31.9209 36.4791 32.1966 36.6733 32.2189 36.7031C32.2413 36.7405 32.286 36.7629 32.3158 36.7629C32.368 36.748 32.83 36.9795 32.8822 37.0467C32.9045 37.0691 33.0238 37.1289 33.143 37.1812C33.2697 37.226 33.6498 37.3828 34 37.5247C34.708 37.8235 35.7587 38.1521 36.1835 38.2268C36.3325 38.2492 36.4592 38.294 36.4592 38.3164C36.4592 38.3463 36.5188 38.3687 36.5934 38.3762C36.6604 38.3762 37.3088 38.4733 38.0242 38.5853C39.1942 38.772 39.5295 38.787 41.2659 38.7944C42.8681 38.7944 43.3972 38.7646 44.3213 38.6301C45.454 38.4658 46.8848 38.1745 47.4735 37.9803C47.6524 37.9206 47.8238 37.8907 47.861 37.9131C47.8983 37.9355 47.9356 37.928 47.9505 37.8982C47.9579 37.8608 48.2113 37.7563 48.4945 37.6592C50.2234 37.0766 52.2951 36.0608 53.3607 35.2766C53.4874 35.172 53.5992 35.1197 53.5992 35.1571C53.5992 35.187 53.6439 35.1646 53.6961 35.1048C53.7408 35.0376 54.091 34.7538 54.4562 34.47C55.1791 33.9173 56.8036 32.3114 57.288 31.6691C57.7202 31.094 58.3313 30.1455 58.4431 29.8841C58.4953 29.7646 58.5102 29.6077 58.4878 29.5405C58.4431 29.4285 58.4208 29.4285 58.2643 29.5778C58.1748 29.6675 57.8991 30.0334 57.6606 30.3919C55.9094 33.0061 53.4949 34.9853 50.3575 36.3895C49.9998 36.5538 48.9118 36.8899 48.6063 36.9422C48.4199 36.972 48.2187 37.0243 48.1591 37.0542C47.9356 37.1737 46.6091 37.2857 45.4763 37.2857C43.8592 37.2932 43.2258 37.1961 41.8248 36.748C39.9915 36.1579 38.6576 35.0226 37.8006 33.3272C37.3088 32.3488 36.9287 30.8998 36.8169 29.5853C36.735 28.5919 36.7871 25.7239 36.9064 24.8799C37.1374 23.1919 37.7037 20.2044 38.2552 17.7621C38.3372 17.4036 38.4191 16.9554 38.4489 16.7762C38.4713 16.5895 38.516 16.4401 38.5458 16.4401C38.5682 16.4401 38.5905 16.3803 38.5905 16.3056C38.5831 16.104 38.7917 15.021 38.8365 15.021C38.8663 15.021 38.8886 14.9314 38.8961 14.8119C38.8961 14.6998 38.9706 14.289 39.06 13.9007C39.2314 13.109 39.4923 11.8542 39.7307 10.7264C39.8127 10.3156 39.9692 9.57617 40.0735 9.08322C40.1779 8.59028 40.3045 7.9853 40.3493 7.73883C40.4014 7.49235 40.4536 7.27576 40.4759 7.25335C40.5057 7.23094 40.5281 7.14878 40.5281 7.06663C40.543 6.89484 40.7591 5.83426 41.0349 4.56455C41.5863 2.04007 41.5938 2.01766 41.9962 1.82347C42.339 1.65916 43.4792 1.3604 44.5523 1.16621C45.141 1.06165 46.4451 1.0019 47.2872 1.03924C47.6449 1.06165 49.0012 1.38281 49.3887 1.53965C52.6751 2.89152 54.9108 6.37949 56.0659 11.9587C56.3118 13.1762 56.6546 15.2749 56.6471 15.5587C56.6397 15.7977 56.7887 16.806 56.8409 16.8957C56.8707 16.933 56.9154 16.9629 56.9452 16.9629C57.0197 16.9629 59.628 13.4525 62.3406 9.71061C62.6163 9.32223 63.0411 8.73966 63.2796 8.41103C64.062 7.33551 64.7775 6.25999 64.7775 6.17036C64.7775 5.99111 62.7877 4.57202 61.5358 3.85501C61.3345 3.74297 61.1408 3.60853 61.111 3.56372C61.0812 3.51891 61.0514 3.51144 61.0514 3.54131C61.0514 3.60853 60.3583 3.22015 60.3211 3.13053C60.3062 3.10065 60.254 3.07078 60.2093 3.07078C60.1571 3.07078 59.9186 2.97368 59.6727 2.85418C57.9885 2.04007 56.2298 1.41268 54.3817 0.964551C53.4576 0.740484 51.9076 0.464136 51.3263 0.426791C50.2979 0.344634 48.025 0.329696 46.8923 0.381978Z" fill="#F4F4F2"/>
    <path d="M9.59418 0.792488C9.55692 0.807426 9.00546 0.829832 8.37203 0.84477C7.60445 0.859708 7.20949 0.897052 7.19458 0.949334C7.17968 0.994148 7.22439 1.0539 7.29146 1.08377C7.35853 1.10618 8.30496 1.15099 9.40043 1.1734C10.4884 1.19581 11.4125 1.24062 11.4498 1.27796C11.5243 1.35265 11.3529 2.36095 10.7865 5.0124C10.5183 6.2597 10.3319 7.14103 10.1531 7.99995C9.95189 8.98584 9.6538 10.3676 9.47495 11.2116C9.39297 11.5999 9.23648 12.3244 9.13215 12.8174C9.02782 13.3103 8.88623 13.9975 8.8117 14.3485C8.73718 14.6995 8.6105 15.3045 8.52852 15.6929C8.44655 16.0813 8.29005 16.8207 8.17827 17.336C7.96216 18.3219 7.80566 19.0539 7.55229 20.2862C7.47032 20.697 7.31382 21.4365 7.20949 21.9294C7.09771 22.4223 6.97847 22.99 6.94121 23.1991C6.90395 23.4008 6.85179 23.6248 6.82198 23.6846C6.79962 23.7443 6.77726 23.8788 6.76236 23.9833C6.75491 24.0879 6.65803 24.5883 6.54625 25.1037C6.43446 25.619 6.29287 26.2688 6.23326 26.5601C6.17364 26.8439 6.08421 27.2995 6.0246 27.5684C5.96498 27.8373 5.83829 28.39 5.75632 28.8008C5.66689 29.2116 5.57747 29.5999 5.55511 29.6597C5.5253 29.7194 5.51785 29.8165 5.5253 29.8688C5.53275 29.9136 5.50294 30.0854 5.45823 30.2423C5.41352 30.3916 5.30919 30.8547 5.22721 31.2655C5.13779 31.6763 5.0111 32.2962 4.93658 32.6472C4.86206 32.9983 4.74282 33.5808 4.6683 33.9543C4.59378 34.3203 4.51181 34.6414 4.48945 34.6638C4.46709 34.6862 4.44474 34.7833 4.43728 34.8879C4.42983 34.9925 4.35531 35.3958 4.27334 35.7842C4.19136 36.1725 4.05722 36.8149 3.97525 37.2032C3.89328 37.5916 3.73678 38.3161 3.63245 38.8091C3.52812 39.302 3.38653 39.9891 3.31946 40.3402C3.25239 40.6912 3.17042 40.99 3.13316 40.9974C3.10335 41.0124 3.08844 41.0497 3.10335 41.0721C3.13316 41.1244 2.98411 41.8937 2.6115 43.6265C2.52953 44.0149 2.40284 44.6198 2.32832 44.9709C2.2538 45.3219 2.10476 46.024 1.99297 46.5393C1.88119 47.0547 1.7545 47.6821 1.70979 47.936C1.66508 48.1974 1.60546 48.4066 1.5682 48.4066C1.53094 48.4066 1.52349 48.4439 1.5533 48.4887C1.57565 48.5335 1.5682 48.6978 1.51604 48.8472C1.36699 49.3551 1.0391 51.1775 1.09871 51.2298C1.18069 51.312 1.4117 50.9759 1.5831 50.5128C1.66508 50.2812 1.78431 49.9825 1.84393 49.8481C1.90355 49.7211 1.95571 49.5941 1.95571 49.5717C1.95571 49.5045 2.33577 48.6754 2.73819 47.8763C3.37162 46.6066 4.55652 44.7692 4.67575 44.8812C4.70556 44.9111 4.71301 44.8962 4.69811 44.8514C4.63104 44.6124 6.47918 42.7003 7.56719 41.8862C8.87877 40.9003 10.6449 39.9219 12.1652 39.3393C12.5527 39.19 12.9402 39.0331 13.0222 38.9958C13.1042 38.9659 13.5215 38.824 13.9537 38.6896C14.3859 38.5551 14.7883 38.3983 14.8554 38.346C14.9821 38.2414 15.146 37.6887 15.3323 36.7925C15.3845 36.5012 15.5261 35.8514 15.6304 35.336C15.9136 33.9991 16.085 33.185 16.3086 32.1244C16.4129 31.6091 16.5694 30.8846 16.6439 30.5186C16.7259 30.1452 16.8526 29.5402 16.9346 29.1742C17.0091 28.8008 17.1656 28.0838 17.2699 27.5684C17.3817 27.053 17.5307 26.351 17.6053 25.9999C17.6798 25.6489 17.8065 25.0439 17.8884 24.6555C17.9779 24.2672 18.1344 23.5277 18.2387 23.0124C18.3505 22.497 18.4995 21.795 18.574 21.4439C18.6486 21.0929 18.7976 20.3908 18.9094 19.8755C19.0212 19.3601 19.1479 18.7402 19.1926 18.4937C19.2298 18.2472 19.2894 18.0306 19.3118 18.0082C19.3342 17.9858 19.364 17.8887 19.3714 17.7842C19.3938 17.4854 19.6397 16.2531 19.6844 16.2157C19.7068 16.1933 19.744 16.0738 19.7515 15.9543C19.7813 15.6929 19.9527 14.8788 20.5116 12.2572C20.6606 11.5925 20.9513 10.2182 21.1898 9.08294C21.2643 8.70949 21.4133 8.00742 21.5176 7.51447C21.622 7.02153 21.7785 6.28211 21.8604 5.87132C22.1064 4.69124 22.2703 3.92195 22.4864 2.92112C22.5982 2.40576 22.7249 1.80825 22.7696 1.59166L22.8441 1.20328L23.8949 1.19581C24.4762 1.19581 25.0276 1.18087 25.1319 1.16593C25.2363 1.15099 25.7356 1.12112 26.2349 1.09871C27.2335 1.0539 27.4794 0.986679 27.0695 0.882114C26.8161 0.814895 9.74323 0.725268 9.59418 0.792488Z" fill="#F4F4F2"/>
    <path d="M0.0926514 57.0855V58.1387L28.1351 58.0864C43.5537 58.0565 57.8246 58.0341 59.8441 58.0416H63.5106V57.0855V56.122L49.97 56.0772C42.5253 56.0473 28.2544 56.0249 18.261 56.0249H0.0926514V57.0855Z" fill="#F4F4F2"/>
</svg>
