<svg width="44" height="40" viewBox="0 0 44 40" fill="none"
    xmlns="http://www.w3.org/2000/svg">
    <path d="M31.7109 0.15275C31.2829 0.17795 30.865 0.208191 30.7794 0.228352C30.6989 0.248512 30.4118 0.303955 30.15 0.354357C28.2114 0.737413 26.4793 1.438 24.9134 2.47124C22.6928 3.93794 20.7895 6.16067 19.6163 8.66062C19.2537 9.43681 19.1883 9.58801 19.148 9.72914C19.1279 9.7997 19.0926 9.87531 19.0725 9.90555C19.0272 9.97107 18.6042 11.216 18.4934 11.6192C18.2316 12.5869 18.1107 13.0506 18.0856 13.2069C18.0755 13.3026 18.0302 13.5295 17.9899 13.7109C17.7885 14.603 17.713 15.4347 17.713 16.7098C17.713 18.1211 17.8036 18.9326 18.0402 19.7339C18.1158 19.9809 18.1762 20.2178 18.1812 20.248C18.1812 20.2833 18.2014 20.3136 18.2215 20.3136C18.2417 20.3136 18.2719 20.3741 18.292 20.4497C18.3071 20.5253 18.3776 20.7117 18.4481 20.8579C18.5136 21.0041 18.5689 21.1301 18.5689 21.1402C18.5689 21.1855 19.002 21.9315 19.2135 22.244C19.7271 23.0202 20.5679 23.8417 21.3887 24.376C21.5951 24.5121 21.7814 24.6431 21.7965 24.6633C21.8116 24.6885 21.8419 24.7036 21.862 24.7036C21.8972 24.6935 22.2094 24.8498 22.2447 24.8951C22.2598 24.9102 22.3403 24.9506 22.4209 24.9858C22.5065 25.0161 22.7633 25.1219 23 25.2177C23.4783 25.4193 24.1883 25.6411 24.4753 25.6915C24.576 25.7066 24.6616 25.7368 24.6616 25.752C24.6616 25.7721 24.7019 25.7872 24.7522 25.7923C24.7975 25.7923 25.2356 25.8578 25.719 25.9334C26.5095 26.0594 26.7361 26.0695 27.9093 26.0745C28.9919 26.0745 29.3494 26.0544 29.9738 25.9636C30.7391 25.8528 31.7059 25.6562 32.1037 25.5251C32.2245 25.4848 32.3403 25.4647 32.3655 25.4798C32.3907 25.4949 32.4159 25.4899 32.4259 25.4697C32.431 25.4445 32.6022 25.3739 32.7935 25.3084C33.9617 24.9153 35.3615 24.2298 36.0815 23.7006C36.1671 23.63 36.2427 23.5947 36.2427 23.6199C36.2427 23.6401 36.2729 23.625 36.3081 23.5847C36.3383 23.5393 36.575 23.3478 36.8217 23.1562C37.3101 22.7833 38.4078 21.6996 38.7351 21.2662C39.0272 20.8781 39.44 20.238 39.5156 20.0616C39.5508 19.9809 39.5609 19.8751 39.5458 19.8297C39.5156 19.7541 39.5005 19.7541 39.3947 19.8549C39.3343 19.9154 39.148 20.1624 38.9869 20.4043C37.8036 22.1684 36.1722 23.504 34.0523 24.4516C33.8106 24.5625 33.0755 24.7893 32.869 24.8246C32.7432 24.8447 32.6072 24.88 32.5669 24.9002C32.4159 24.9808 31.5196 25.0564 30.7542 25.0564C29.6616 25.0614 29.2336 24.9959 28.287 24.6935C27.0483 24.2953 26.147 23.5292 25.5679 22.3851C25.2356 21.7248 24.9788 20.747 24.9033 19.86C24.8479 19.1896 24.8831 17.2542 24.9637 16.6846C25.1198 15.5455 25.5025 13.5295 25.8751 11.8813C25.9305 11.6394 25.9859 11.337 26.006 11.216C26.0211 11.09 26.0513 10.9892 26.0715 10.9892C26.0866 10.9892 26.1017 10.9489 26.1017 10.8985C26.0966 10.7624 26.2376 10.0316 26.2678 10.0316C26.288 10.0316 26.3031 9.97107 26.3081 9.89042C26.3081 9.81482 26.3585 9.53761 26.4189 9.27552C26.5347 8.74126 26.7109 7.8945 26.8721 7.13343C26.9275 6.85622 27.0332 6.35724 27.1037 6.02459C27.1742 5.69193 27.2598 5.28368 27.29 5.11735C27.3252 4.95103 27.3605 4.80486 27.3756 4.78974C27.3957 4.77462 27.4108 4.71918 27.4108 4.66373C27.4209 4.54781 27.5669 3.8321 27.7532 2.97526C28.1258 1.27168 28.1309 1.25655 28.4028 1.12551C28.6344 1.01462 29.4048 0.813017 30.1299 0.681971C30.5277 0.611408 31.4088 0.571087 31.9778 0.596287C32.2195 0.611408 33.1359 0.828136 33.3977 0.933981C35.6183 1.84626 37.1289 4.20003 37.9093 7.96507C38.0755 8.78662 38.3071 10.2029 38.3021 10.3944C38.297 10.5557 38.3977 11.2362 38.433 11.2966C38.4531 11.3218 38.4833 11.342 38.5035 11.342C38.5538 11.342 40.3162 8.97311 42.149 6.44797C42.3353 6.18587 42.6223 5.79274 42.7834 5.57097C43.3121 4.84518 43.7955 4.11939 43.7955 4.05891C43.7955 3.93794 42.4511 2.9803 41.6052 2.49644C41.4692 2.42084 41.3383 2.33012 41.3182 2.29988C41.298 2.26964 41.2779 2.2646 41.2779 2.28476C41.2779 2.33012 40.8096 2.06803 40.7845 2.00755C40.7744 1.98738 40.7391 1.96722 40.7089 1.96722C40.6737 1.96722 40.5126 1.9017 40.3464 1.82106C39.2084 1.27168 38.0201 0.848297 36.7714 0.545885C36.147 0.394678 35.0997 0.208191 34.7069 0.182991C34.012 0.127548 32.4763 0.117468 31.7109 0.15275Z" fill="#D7FF00"/>
    <path d="M6.50955 0.429943C6.48437 0.440025 6.11176 0.455147 5.68377 0.465225C5.16514 0.475307 4.89827 0.500507 4.8882 0.535789C4.87813 0.566029 4.90834 0.60635 4.95365 0.626511C4.99897 0.641632 5.63845 0.671875 6.37863 0.686996C7.11378 0.702114 7.73815 0.732357 7.76332 0.757557C7.81367 0.807961 7.69786 1.48839 7.31519 3.27766C7.13392 4.11937 7.00804 4.71412 6.88719 5.29374C6.75124 5.95905 6.54983 6.89148 6.42898 7.46103C6.37359 7.72312 6.26785 8.21202 6.19736 8.54467C6.12687 8.87732 6.0312 9.34102 5.98085 9.57791C5.93049 9.8148 5.84489 10.2231 5.78951 10.4851C5.73412 10.7472 5.62838 11.2462 5.55285 11.594C5.40683 12.2593 5.30109 12.7532 5.12989 13.5849C5.0745 13.8621 4.96876 14.3611 4.89827 14.6937C4.82274 15.0264 4.74217 15.4094 4.717 15.5506C4.69182 15.6866 4.65658 15.8378 4.63643 15.8782C4.62133 15.9185 4.60622 16.0092 4.59615 16.0798C4.59112 16.1503 4.52566 16.488 4.45013 16.8358C4.3746 17.1836 4.27893 17.6221 4.23865 17.8186C4.19837 18.0102 4.13794 18.3176 4.09766 18.4991C4.05738 18.6805 3.97178 19.0535 3.91639 19.3307C3.85597 19.6079 3.79555 19.87 3.78044 19.9103C3.7603 19.9506 3.75527 20.0162 3.7603 20.0515C3.76534 20.0817 3.7452 20.1976 3.71498 20.3035C3.68477 20.4043 3.61428 20.7168 3.55889 20.994C3.49847 21.2712 3.41287 21.6895 3.36252 21.9264C3.31216 22.1633 3.2316 22.5564 3.18125 22.8084C3.1309 23.0554 3.07551 23.2721 3.0604 23.2873C3.0453 23.3024 3.03019 23.3679 3.02516 23.4385C3.02012 23.509 2.96977 23.7812 2.91438 24.0433C2.85899 24.3054 2.76836 24.7388 2.71297 25.0009C2.65758 25.263 2.55184 25.7519 2.48135 26.0846C2.41086 26.4172 2.31519 26.8809 2.26987 27.1178C2.22455 27.3547 2.16916 27.5563 2.14399 27.5614C2.12385 27.5714 2.11378 27.5966 2.12385 27.6118C2.14399 27.647 2.04328 28.1662 1.79152 29.3355C1.73613 29.5976 1.65053 30.0058 1.60018 30.2427C1.54983 30.4796 1.44912 30.9534 1.37359 31.3012C1.29807 31.649 1.21247 32.0723 1.18226 32.2437C1.15204 32.4201 1.11176 32.5612 1.08659 32.5612C1.06141 32.5612 1.05637 32.5864 1.07652 32.6167C1.09162 32.6469 1.08659 32.7578 1.05134 32.8586C0.950634 33.2013 0.729083 34.4311 0.769365 34.4664C0.824753 34.5219 0.980845 34.2951 1.09666 33.9826C1.15204 33.8263 1.23261 33.6247 1.27289 33.534C1.31317 33.4483 1.34842 33.3626 1.34842 33.3475C1.34842 33.3021 1.60522 32.7427 1.87712 32.2034C2.30512 31.3465 3.10572 30.1067 3.18628 30.1823C3.20642 30.2024 3.21146 30.1923 3.20139 30.1621C3.15607 30.0008 4.40481 28.7105 5.13996 28.1611C6.02616 27.4958 7.21952 26.8356 8.24671 26.4424C8.50854 26.3416 8.77037 26.2358 8.82576 26.2106C8.88115 26.1904 9.16312 26.0947 9.45517 26.0039C9.74721 25.9132 10.0191 25.8074 10.0644 25.7721C10.15 25.7015 10.2608 25.3285 10.3867 24.7237C10.4219 24.5272 10.5176 24.0887 10.5881 23.7409C10.7794 22.8387 10.8952 22.2893 11.0463 21.5736C11.1168 21.2258 11.2225 20.7369 11.2729 20.4899C11.3283 20.2379 11.4139 19.8297 11.4693 19.5827C11.5196 19.3307 11.6254 18.8468 11.6959 18.4991C11.7714 18.1513 11.8721 17.6775 11.9224 17.4406C11.9728 17.2037 12.0584 16.7955 12.1138 16.5334C12.1742 16.2713 12.2799 15.7723 12.3504 15.4245C12.426 15.0768 12.5267 14.603 12.577 14.3661C12.6274 14.1292 12.7281 13.6554 12.8036 13.3077C12.8791 12.9599 12.9647 12.5415 12.9949 12.3752C13.0201 12.2089 13.0604 12.0627 13.0755 12.0476C13.0906 12.0325 13.1108 11.967 13.1158 11.8964C13.1309 11.6948 13.2971 10.8632 13.3273 10.838C13.3424 10.8228 13.3676 10.7422 13.3726 10.6616C13.3927 10.4851 13.5085 9.93576 13.8862 8.16665C13.9869 7.71808 14.1833 6.79068 14.3444 6.02457C14.3947 5.77256 14.4954 5.29878 14.5659 4.96613C14.6364 4.63347 14.7422 4.13449 14.7976 3.85728C14.9637 3.06093 15.0745 2.54179 15.2205 1.8664C15.2961 1.51863 15.3817 1.11541 15.4119 0.969246L15.4622 0.707157L16.1722 0.702114C16.5649 0.702114 16.9375 0.692036 17.008 0.681953C17.0785 0.671875 17.4159 0.651714 17.7533 0.636593C18.428 0.60635 18.5941 0.560989 18.3172 0.490425C18.146 0.445065 6.61025 0.384583 6.50955 0.429943Z" fill="#D7FF00"/>
    <path d="M0.0895996 38.418V39.1287L19.0372 39.0934C29.4552 39.0732 39.0977 39.0581 40.4622 39.0631H42.9395V38.418V37.7678L33.7905 37.7375C28.7603 37.7174 19.1178 37.7022 12.3655 37.7022H0.0895996V38.418Z" fill="#D7FF00"/>
</svg>
